<?xml version="1.0" encoding="iso-8859-1"?>
<!-- Generator: Adobe Illustrator 19.0.0, SVG Export Plug-In . SVG Version: 6.00 Build 0)  -->
<svg version="1.1" id="Capa_1" xmlns="http://www.w3.org/2000/svg" xmlns:xlink="http://www.w3.org/1999/xlink" x="0px" y="0px"
	 viewBox="0 0 490.011 490.011" style="enable-background:new 0 0 490.011 490.011;" xml:space="preserve">
<g>
	<g>
		<g>
			<path d="M37.497,308.911c50.1,97.6,169.9,136,267.4,85.9l-181.5-353.4C25.797,91.611-12.303,211.311,37.497,308.911z"/>
			<path d="M105.897,407.211l-47.4,82.8h112.7l-40.4-70.4C122.597,416.111,113.997,411.911,105.897,407.211z"/>
			<polygon points="244.997,235.811 330.897,158.111 217.797,182.511 			"/>
			<path d="M317.697,74.111c-5.1-1.9-10.5,0.8-12.4,5.8c-1.9,5.1,0.8,10.5,5.8,12.4c24.9,8.6,44.7,26.4,56.4,50.5
				c11.3,23.7,12.8,50.9,4.3,75.8c-1.9,5.1,0.8,10.5,5.8,12.4c1.2,0.4,9.3,1.7,12.4-6.2c10.5-29.9,8.9-62.2-5.1-90.6
				C371.397,106.011,347.597,84.611,317.697,74.111z"/>
			<path d="M330.097,38.711c-5.1-1.9-10.5,0.8-12.4,5.8c-1.9,5.1,0.8,10.5,5.8,12.4c34.2,12,61.8,36.5,77.4,69.2
				c15.9,33,17.9,70,5.4,104.2c-1.9,5.1,0.8,10.5,5.8,12.4c1.2,0.4,9.2,1.8,12.4-6.2c14-39.3,11.7-81.6-6.6-119.3
				C400.897,80.711,369.397,52.311,330.097,38.711z"/>
			<path d="M454.897,100.511c-22.5-47-62.2-82.4-111.6-99.9c-5.1-1.9-10.5,0.8-12.4,5.8s0.8,10.5,5.8,12.4
				c44.3,15.5,80.1,47.4,100.3,89.8c20.6,42.4,22.9,90.6,7.4,135.3c-1.9,5.1,0.8,10.5,5.8,12.4c1.2,0.4,9,2,12.4-6.2
				C480.597,201.211,477.897,147.911,454.897,100.511z"/>
		</g>
	</g>
</g>
<g>
</g>
<g>
</g>
<g>
</g>
<g>
</g>
<g>
</g>
<g>
</g>
<g>
</g>
<g>
</g>
<g>
</g>
<g>
</g>
<g>
</g>
<g>
</g>
<g>
</g>
<g>
</g>
<g>
</g>
</svg>
