<?xml version="1.0" encoding="utf-8"?>
<!-- Generator: Adobe Illustrator 16.0.0, SVG Export Plug-In . SVG Version: 6.00 Build 0)  -->
<!DOCTYPE svg PUBLIC "-//W3C//DTD SVG 1.1//EN" "http://www.w3.org/Graphics/SVG/1.1/DTD/svg11.dtd">
<svg version="1.1"
	 id="starlink-logo" xmlns:svg="http://www.w3.org/2000/svg" xmlns:cc="http://creativecommons.org/ns#" xmlns:rdf="http://www.w3.org/1999/02/22-rdf-syntax-ns#" xmlns:dc="http://purl.org/dc/elements/1.1/" xmlns:inkscape="http://www.inkscape.org/namespaces/inkscape" xmlns:sodipodi="http://sodipodi.sourceforge.net/DTD/sodipodi-0.dtd" inkscape:version="0.48.2 r9819" sodipodi:docname="sl.svg"
	 xmlns="http://www.w3.org/2000/svg" xmlns:xlink="http://www.w3.org/1999/xlink" x="0px" y="0px" width="1032px" height="524px"
	 viewBox="0 0 1032 524" enable-background="new 0 0 1032 524" xml:space="preserve">
<sodipodi:namedview  bordercolor="#666666" objecttolerance="10" borderopacity="1" id="namedview27" pagecolor="#ffffff" gridtolerance="10" guidetolerance="10" showgrid="false" inkscape:zoom="0.47934783" inkscape:cx="726.22374" inkscape:cy="-161.12401" fit-margin-left="0" inkscape:current-layer="starlink-logo" inkscape:window-maximized="1" inkscape:window-y="-4" inkscape:window-x="-4" inkscape:window-height="968" inkscape:window-width="1280" inkscape:pageshadow="2" inkscape:pageopacity="0">
	</sodipodi:namedview>
<g id="g853" transform="matrix(3.3783784,0,0,3.3783784,-530.93388,7.7531848)">
	<g id="letters">
		<path id="letter-s" inkscape:connector-curvature="0" fill="#FFFFFF" d="M164,142.2h2.8c0.1,0.9,0.4,1.5,0.8,1.8
			c0.4,0.4,1.1,0.5,2,0.5c1.7,0,2.5-0.7,2.5-2c0-0.6-0.2-1.1-0.5-1.4s-0.9-0.5-1.6-0.7l-1.5-0.2c-2.8-0.5-4.2-1.9-4.2-4.3
			c0-1.4,0.5-2.6,1.4-3.4c1-0.8,2.2-1.3,3.8-1.3c1.5,0,2.7,0.4,3.6,1.2c0.9,0.8,1.4,2,1.5,3.4h-2.8c0-0.8-0.3-1.3-0.7-1.6
			c-0.4-0.3-1-0.5-1.7-0.5c-0.8,0-1.3,0.2-1.7,0.5c-0.4,0.3-0.6,0.8-0.6,1.5c0,0.5,0.2,1,0.5,1.3s0.9,0.5,1.6,0.7l1.6,0.3
			c2.7,0.5,4,1.9,4,4.4c0,1.6-0.5,2.8-1.5,3.6c-1,0.8-2.3,1.2-4,1.2c-1.7,0-3-0.4-3.9-1.2C164.6,145,164.1,143.8,164,142.2
			L164,142.2z"/>
		<path id="letter-t" inkscape:connector-curvature="0" fill="#FFFFFF" d="M188.5,134v13h-3v-13h-4v-2.6h10.9v2.6H188.5z"/>
		<path id="letter-a" inkscape:connector-curvature="0" fill="#FFFFFF" d="M200.9,143.9l-0.9,3h-3.1l5.5-15.5h2.4l5.5,15.5h-3.1
			l-0.9-3H200.9z M203.6,135.5l-1.9,6h3.8L203.6,135.5z"/>
		<path id="letter-r" inkscape:connector-curvature="0" fill="#FFFFFF" d="M220.3,140.7v6.3h-2.9v-15.5h5.9c1.5,0,2.7,0.4,3.6,1.2
			c0.9,0.8,1.4,2,1.4,3.4c0,1-0.2,1.9-0.7,2.6c-0.5,0.7-1.2,1.2-2,1.6l3.4,6.8h-3.4l-2.9-6.3h-2.4V140.7z M223.1,138.2
			c0.7,0,1.2-0.2,1.6-0.6c0.4-0.4,0.6-0.9,0.6-1.6c0-0.6-0.2-1.1-0.6-1.5c-0.4-0.4-0.9-0.6-1.6-0.6h-2.8v4.2h2.8V138.2z"/>
		<path id="letter-l" inkscape:connector-curvature="0" fill="#FFFFFF" d="M239.2,131.4v13h6.8v2.6h-9.7v-15.5h2.9V131.4z"/>
		<path id="letter-i" inkscape:connector-curvature="0" fill="#FFFFFF" d="M256.6,131.4V147h-2.9v-15.5h2.9V131.4z"/>
		<path id="letter-n" inkscape:connector-curvature="0" fill="#FFFFFF" d="M276.7,147h-2.9l-5.7-9.7v9.7H265v-15.5h2.9l5.7,9.7v-9.7
			h2.9V147H276.7z"/>
		<path id="letter-k" inkscape:connector-curvature="0" fill="#FFFFFF" d="M287.9,142.6v4.3H285v-15.5h2.9v7.2l5.4-7.2h3.5l-5,6.2
			l5.4,9.3h-3.4L290,140L287.9,142.6z"/>
	</g>
	<g id="logo">
		<g>
			<defs>
				<circle id="SVGID_1_" cx="275" cy="85" r="675.676"/>
			</defs>
			<clipPath id="SVGID_2_">
				<use xlink:href="#SVGID_1_"  overflow="visible"/>
			</clipPath>
			<g id="x1" clip-path="url(#SVGID_2_)">
				<path id="path17" inkscape:connector-curvature="0" fill="#FFFFFF" d="M168.4,112.2l-3.9,3.8H199C292,22.6,425.9,6,460,3.2V3.1
					C273.9,13.8,187.9,93.4,168.4,112.2"/>
			</g>
		</g>
		<g>
			<defs>
				<circle id="SVGID_3_" cx="230" cy="90" r="270.27"/>
			</defs>
			<clipPath id="SVGID_4_">
				<use xlink:href="#SVGID_3_"  overflow="visible"/>
			</clipPath>
			<g id="x2" clip-path="url(#SVGID_4_)">
				<path id="path20" inkscape:connector-curvature="0" fill="#FFFFFF" d="M263.2,116h34.1l-47.2-34.8c-5.7,3.9-11.6,8.3-17.2,12.7
					L263.2,116z"/>
				<path id="path22" inkscape:connector-curvature="0" fill="#FFFFFF" d="M200.9,44.6h-34.1l40,29.3c5.8-3.9,12.5-8.1,18.7-11.7
					L200.9,44.6z"/>
			</g>
		</g>
	</g>
</g>
</svg>
